<svg width="29" height="29" viewBox="0 0 29 29" fill="none" xmlns="http://www.w3.org/2000/svg">
<path d="M14.5 0C6.49358 0 0 6.6565 0 14.8666C0 21.4351 4.15425 27.0076 9.91679 28.9737C10.6406 29.1112 10.875 28.6503 10.875 28.2589V25.4912C6.84158 26.3906 6.00179 23.7369 6.00179 23.7369C5.34204 22.0186 4.39108 21.5615 4.39108 21.5615C3.07521 20.6385 4.49137 20.6583 4.49137 20.6583C5.94742 20.7624 6.7135 22.1908 6.7135 22.1908C8.00642 24.4629 10.1053 23.8063 10.933 23.426C11.0623 22.4659 11.4381 21.8093 11.8538 21.4388C8.63354 21.061 5.24779 19.7862 5.24779 14.091C5.24779 12.4669 5.8145 11.1413 6.74129 10.1006C6.59146 9.72521 6.09483 8.21254 6.88267 6.16591C6.88267 6.16591 8.10067 5.76699 10.8714 7.68973C12.0278 7.36019 13.2675 7.19542 14.5 7.18922C15.7325 7.19542 16.9735 7.36019 18.1322 7.68973C20.9005 5.76699 22.1161 6.16591 22.1161 6.16591C22.9052 8.21378 22.4085 9.72645 22.2587 10.1006C23.1891 11.1413 23.751 12.4681 23.751 14.091C23.751 19.801 20.3592 21.0585 17.1305 21.4264C17.6501 21.8873 18.125 22.7917 18.125 24.1792V28.2589C18.125 28.6541 18.357 29.1186 19.0929 28.9725C24.8506 27.0039 29 21.4326 29 14.8666C29 6.6565 22.5076 0 14.5 0Z" fill="url(#paint0_linear_158_40)"/>
<defs>
<linearGradient id="paint0_linear_158_40" x1="-12.0833" y1="14.5" x2="47.125" y2="14.5" gradientUnits="userSpaceOnUse">
<stop offset="0.229167" stop-color="#FFC633"/>
<stop offset="1" stop-color="#FF0BBB"/>
</linearGradient>
</defs>
</svg>
